<?xml version="1.0" encoding="UTF-8"?>
<svg id="Ebene_1" data-name="Ebene 1" xmlns="http://www.w3.org/2000/svg" viewBox="0 0 36.5516 23.4">
  <defs>
    <style>
      .cls-1 {
        fill: #fff;
      }
    </style>
  </defs>
  <path d="M33.2783,0H3.2734c-.125,0-.2502,0-.3749,.0007-.1054,.0008-.2106,.0019-.3159,.0048-.2294,.0062-.4608,.0197-.6874,.0605-.2302,.0414-.4444,.109-.6534,.2154-.2054,.1045-.3935,.2411-.5565,.4042-.1631,.1631-.2997,.3508-.4042,.5565-.1064,.209-.174,.4232-.2152,.6536-.0409,.2266-.0546,.458-.0607,.6872-.0028,.1052-.004,.2104-.0047,.3156-.0007,.125-.0005,.2499-.0005,.3752V20.1267c0,.1252-.0002,.2499,.0005,.3752,.0007,.1052,.0019,.2104,.0047,.3156,.0062,.229,.0198,.4604,.0607,.6869,.0411,.2305,.1088,.4446,.2152,.6536,.1045,.2057,.2411,.3937,.4042,.5565,.163,.1633,.3511,.2999,.5565,.4042,.209,.1067,.4232,.1743,.6534,.2157,.2266,.0405,.458,.0542,.6874,.0604,.1052,.0024,.2104,.0038,.3159,.0043,.1247,.001,.2499,.001,.3749,.001h30.0049c.1247,0,.2499,0,.3747-.001,.1052-.0005,.2104-.0019,.3161-.0043,.229-.0062,.4603-.02,.6874-.0604,.2299-.0414,.4441-.109,.6531-.2157,.2057-.1042,.3932-.2408,.5565-.4042,.1628-.1628,.2994-.3508,.4042-.5565,.1067-.209,.1742-.4232,.2151-.6536,.041-.2266,.0543-.4579,.0605-.6869,.0029-.1052,.0043-.2104,.0048-.3156,.001-.1253,.001-.25,.001-.3752V3.2736c0-.1252,0-.2502-.001-.3752-.0005-.1052-.0019-.2104-.0048-.3156-.0062-.2292-.0195-.4606-.0605-.6872-.0409-.2304-.1085-.4446-.2151-.6536-.1047-.2057-.2414-.3934-.4042-.5565-.1633-.1631-.3509-.2997-.5565-.4042-.209-.1064-.4232-.174-.6531-.2154-.2271-.0407-.4585-.0543-.6874-.0605-.1057-.0029-.2109-.004-.3161-.0048-.1247-.0007-.2499-.0007-.3747-.0007h0Z"/>
  <path class="cls-1" d="M33.2783,.78l.3691,.0007c.1,.0007,.2,.0018,.3005,.0045,.1749,.0047,.3795,.0142,.5702,.0484,.1658,.0299,.3048,.0753,.4382,.1432,.1317,.0669,.2524,.1546,.3578,.2599,.1058,.1059,.1936,.2268,.2614,.36,.0675,.1324,.1127,.2708,.1423,.4377,.0341,.1886,.0435,.3938,.0483,.5698,.0027,.0993,.004,.1987,.0045,.3003,.0009,.123,.0009,.2459,.0009,.3691V20.1267c0,.1232,0,.2459-.001,.3715-.0005,.0993-.0018,.1986-.0045,.2981-.0048,.1757-.0142,.3808-.0487,.5716-.0293,.1647-.0744,.3031-.1423,.4361-.0676,.1328-.1553,.2536-.2606,.3589-.106,.106-.2263,.1934-.3595,.261-.1324,.0676-.2712,.113-.4354,.1425-.1946,.0347-.4077,.0442-.5683,.0486-.101,.0023-.2015,.0036-.3045,.0041-.1227,.001-.2459,.0009-.3686,.0009H3.2685c-.1213,0-.2429,0-.3664-.001-.1007-.0005-.2012-.0018-.2984-.004-.1642-.0044-.3775-.014-.5705-.0484-.1656-.0298-.3043-.0751-.4385-.1436-.132-.067-.2522-.1543-.3582-.2605-.1052-.105-.1926-.2254-.2602-.3584-.0677-.1329-.1129-.2717-.1427-.4384-.0344-.1905-.0439-.3947-.0486-.5692-.0027-.0999-.0038-.1998-.0045-.2992l-.0005-.2932v-.0774s0-16.8531,0-16.8531v-.0774s.0004-.2926,.0004-.2926c.0007-.0999,.0018-.1998,.0045-.2997,.0047-.1747,.0142-.379,.0489-.5711,.0295-.1652,.0748-.304,.1428-.4375,.0671-.132,.1546-.2526,.2604-.3583,.1053-.1054,.2259-.193,.3588-.2606,.1327-.0676,.2718-.113,.4373-.1428,.1908-.0343,.3955-.0437,.5708-.0485,.0999-.0027,.1999-.0038,.2991-.0045l.3703-.0007h30.0049"/>
  <g>
    <g>
      <path d="M9.9784,7.8704c.313-.3915,.5253-.9171,.4693-1.4542-.4581,.0228-1.0172,.3022-1.3409,.694-.2906,.3355-.5479,.8831-.4808,1.3977,.5143,.0446,1.0281-.2571,1.3523-.6375"/>
      <path d="M10.4418,8.6084c-.7469-.0445-1.3819,.4239-1.7385,.4239-.3569,0-.903-.4015-1.4938-.3906-.7689,.0113-1.4823,.446-1.8725,1.1374-.8025,1.3832-.2118,3.4349,.5686,4.5614,.379,.5573,.8357,1.171,1.4375,1.1489,.5686-.0223,.7915-.3682,1.4827-.3682,.6907,0,.8914,.3682,1.4933,.357,.6242-.0112,1.0144-.5576,1.3934-1.1155,.4348-.6353,.6127-1.2488,.6239-1.2825-.0112-.0112-1.2036-.4686-1.2147-1.8403-.0113-1.1485,.9362-1.6948,.9808-1.7287-.535-.7913-1.371-.8806-1.6608-.903"/>
    </g>
    <g>
      <path d="M16.9449,7.0541c1.6233,0,2.7537,1.119,2.7537,2.7481,0,1.6349-1.1536,2.7597-2.7944,2.7597h-1.7973v2.8582h-1.2985V7.0541h3.1365Zm-1.838,4.4178h1.49c1.1306,0,1.774-.6087,1.774-1.6639s-.6435-1.6581-1.7682-1.6581h-1.4958v3.322Z"/>
      <path d="M20.0379,13.6866c0-1.0668,.8175-1.7219,2.267-1.8031l1.6696-.0985v-.4696c0-.6783-.458-1.0842-1.2232-1.0842-.7249,0-1.1771,.3478-1.2871,.8928h-1.1827c.0696-1.1016,1.0087-1.9133,2.5161-1.9133,1.4784,0,2.4233,.7827,2.4233,2.006v4.2033h-1.2001v-1.003h-.0289c-.3536,.6783-1.1248,1.1073-1.9248,1.1073-1.1943,0-2.0292-.7421-2.0292-1.8378Zm3.9366-.5508v-.4812l-1.5016,.0927c-.7479,.0522-1.1711,.3827-1.1711,.9045,0,.5333,.4406,.8812,1.1131,.8812,.8754,0,1.5596-.603,1.5596-1.3972Z"/>
      <path d="M26.3539,17.6637v-1.0146c.0926,.0231,.3013,.0231,.4057,.0231,.5797,0,.8928-.2435,1.0841-.8696,0-.0116,.1103-.371,.1103-.3769l-2.203-6.1049h1.3565l1.5423,4.9628h.023l1.5423-4.9628h1.3218l-2.2844,6.4179c-.5216,1.4785-1.1245,1.9539-2.3884,1.9539-.1044,0-.4176-.0116-.5102-.029Z"/>
    </g>
  </g>
</svg>