<?xml version="1.0" encoding="UTF-8"?>
<svg id="Ebene_1" data-name="Ebene 1" xmlns="http://www.w3.org/2000/svg" viewBox="0 0 43.992 23.4">
  <defs>
    <style>
      .cls-1 {
        fill: #fabb05;
      }

      .cls-2 {
        fill: #e94235;
      }

      .cls-3 {
        fill: #fff;
      }

      .cls-4 {
        fill: #4285f4;
      }

      .cls-5 {
        fill: #34a853;
      }

      .cls-6 {
        fill: #3c4043;
      }
    </style>
  </defs>
  <path id="Base" class="cls-3" d="M32.292,0H11.7C5.265,0,0,5.265,0,11.7H0c0,6.435,5.265,11.7,11.7,11.7h20.592c6.435,0,11.7-5.265,11.7-11.7h0c0-6.435-5.265-11.7-11.7-11.7Z"/>
  <path id="Outline" class="cls-6" d="M32.292,.9477c1.445,0,2.849,.2866,4.171,.8483,1.2812,.5441,2.4278,1.3221,3.4222,2.3107,.9887,.9887,1.7667,2.1411,2.3108,3.4223,.5616,1.3221,.8483,2.7261,.8483,4.171s-.2867,2.849-.8483,4.171c-.544,1.2811-1.3221,2.4277-2.3108,3.4222-.9887,.9887-2.1411,1.7667-3.4222,2.3108-1.3221,.5616-2.7261,.8482-4.171,.8482H11.7c-1.445,0-2.849-.2867-4.171-.8482-1.2811-.544-2.4277-1.3221-3.4222-2.3108-.9886-.9886-1.7667-2.1411-2.3108-3.4222-.5616-1.3221-.8482-2.7261-.8482-4.171s.2866-2.849,.8482-4.171c.5441-1.2811,1.3221-2.4278,2.3108-3.4223,.9886-.9886,2.1411-1.7667,3.4222-2.3107,1.3221-.5616,2.7261-.8483,4.171-.8483h20.592m0-.9477H11.7C5.265,0,0,5.265,0,11.7H0c0,6.435,5.265,11.7,11.7,11.7h20.592c6.435,0,11.7-5.265,11.7-11.7h0c0-6.435-5.265-11.7-11.7-11.7h0Z"/>
  <g id="G_Pay_Lockup" data-name="G Pay Lockup">
    <g id="Pay_Typeface" data-name="Pay Typeface">
      <path id="Letter_p" data-name="Letter p" class="cls-6" d="M20.9781,12.5307v3.5393h-1.1232V7.33h2.9777c.7547,0,1.3982,.2515,1.9247,.7546,.5382,.5031,.8073,1.1174,.8073,1.8427,0,.743-.2691,1.3572-.8073,1.8545-.5207,.4973-1.1642,.743-1.9247,.743h-1.8545v.0059Zm0-4.1242v3.0479h1.8778c.4446,0,.819-.1521,1.1115-.4505,.2983-.2984,.4505-.661,.4505-1.0705,0-.4036-.1521-.7605-.4505-1.0589-.2925-.31-.661-.4621-1.1115-.4621h-1.8778v-.0059Z"/>
      <path id="Letter_a" data-name="Letter a" class="cls-6" d="M28.5012,9.8924c.8307,0,1.4859,.2223,1.9656,.6669,.4797,.4446,.7195,1.053,.7195,1.8252v3.6855h-1.0705v-.8307h-.0468c-.4622,.6845-1.0823,1.0238-1.8545,1.0238-.661,0-1.211-.193-1.6555-.585s-.6669-.8775-.6669-1.4625c0-.6201,.234-1.1115,.702-1.4742,.468-.3685,1.094-.5499,1.872-.5499,.6669,0,1.2168,.1229,1.6438,.3685v-.2574c0-.392-.1521-.7195-.4622-.9945-.31-.275-.6727-.4095-1.0881-.4095-.626,0-1.1232,.2632-1.4859,.7956l-.9887-.6201c.5441-.7897,1.3514-1.1817,2.4161-1.1817Zm-1.4508,4.3407c0,.2925,.1228,.5382,.3744,.7313,.2457,.193,.5382,.2925,.8717,.2925,.4738,0,.895-.1755,1.2636-.5265s.5557-.7605,.5557-1.2344c-.351-.275-.8365-.4154-1.4625-.4154-.4563,0-.8365,.1111-1.1407,.3276-.31,.2282-.4622,.5031-.4622,.8249Z"/>
      <path id="Letter_y" data-name="Letter y" class="cls-6" d="M37.2938,10.0854l-3.744,8.6112h-1.1583l1.3923-3.0127-2.4687-5.5984h1.2227l1.7784,4.2939h.0234l1.7316-4.2939h1.2226Z"/>
    </g>
    <g id="G_Mark" data-name="G Mark">
      <path id="Blue_500" data-name="Blue 500" class="cls-4" d="M16.5105,11.817c0-.3662-.0328-.7166-.0936-1.0536h-4.7081v1.9305l2.7115,.0006c-.11,.6423-.4639,1.1899-1.0062,1.5549v1.2525h1.614c.9424-.8722,1.4824-2.1616,1.4824-3.6849Z"/>
      <path id="Green_500" data-name="Green 500" class="cls-5" d="M13.4146,14.2494c-.4493,.303-1.0278,.4803-1.7047,.4803-1.3075,0-2.4166-.881-2.8139-2.0686h-1.6649v1.2917c.8249,1.6368,2.5202,2.76,4.4788,2.76,1.3537,0,2.4909-.4452,3.3187-1.2115l-1.614-1.2519Z"/>
      <path id="Yellow_500" data-name="Yellow 500" class="cls-1" d="M8.7393,11.7029c0-.3335,.0556-.6558,.1568-.9588v-1.2917h-1.6649c-.3411,.6768-.5329,1.4409-.5329,2.2505s.1925,1.5736,.5329,2.2505l1.6649-1.2917c-.1012-.303-.1568-.6254-.1568-.9588Z"/>
      <path id="Red_500" data-name="Red 500" class="cls-2" d="M11.7099,8.6755c.7389,0,1.4005,.2545,1.9229,.7517l1.4303-1.4292c-.8687-.8091-2.0013-1.3057-3.3532-1.3057-1.958,0-3.6539,1.1232-4.4788,2.76l1.6649,1.2917c.3972-1.1875,1.5064-2.0686,2.8139-2.0686Z"/>
    </g>
  </g>
</svg>