<?xml version="1.0" encoding="UTF-8"?>
<svg id="Ebene_1" data-name="Ebene 1" xmlns="http://www.w3.org/2000/svg" viewBox="0 0 57.8501 23.4">
  <defs>
    <style>
      .cls-1 {
        fill: #ffb3c7;
      }
    </style>
  </defs>
  <g id="Lager_2" data-name="Lager 2">
    <g id="Layer_1" data-name="Layer 1">
      <rect class="cls-1" width="57.8501" height="23.4" rx="6.7907" ry="6.7907"/>
      <path d="M46.3247,10.2531c-1.6354-1.1144-3.8645-.692-4.9789,.9434-1.1144,1.6354-.692,3.8645,.9434,4.9789,1.2173,.8295,2.8182,.8295,4.0354,0v.4339h2.0331v-6.7905h-2.0331v.4343Zm-1.8491,4.7083c-.9649-.0513-1.7055-.8751-1.6542-1.84,.0513-.9649,.8751-1.7055,1.84-1.6542,.9288,.0494,1.6567,.817,1.6567,1.7471-.0271,.9909-.8515,1.7727-1.8425,1.7471Z"/>
      <rect x="16.3153" y="6.7925" width="2.1277" height="9.8168"/>
      <path d="M37.1132,9.636c-.8115-.048-1.5946,.3065-2.0942,.9478v-.7647h-2.0248v6.7903h2.0491v-3.5685c-.0606-.7886,.5296-1.4769,1.3182-1.5375,.0693-.0053,.1388-.0056,.2081-.0008,.8936,0,1.4072,.5338,1.4072,1.5242v3.5826h2.0309v-4.3183c0-1.5803-1.2566-2.655-2.8946-2.655Z"/>
      <path d="M24.8755,10.2531c-1.6354-1.1144-3.8645-.692-4.9789,.9434-1.1144,1.6354-.692,3.8645,.9434,4.9789,1.2173,.8295,2.8182,.8295,4.0354,0v.4339h2.0331v-6.7905h-2.0331v.4343Zm-1.8492,4.7083c-.9649-.0512-1.7056-.8749-1.6544-1.8398,.0512-.9649,.8749-1.7056,1.8398-1.6544,.9289,.0493,1.6569,.8169,1.6569,1.7471-.0271,.9908-.8514,1.7726-1.8423,1.7471h0Z"/>
      <path d="M30.0539,10.7032v-.8845h-2.0816v6.7906h2.0861v-3.1702c0-1.0697,1.1594-1.6447,1.964-1.6447,.0081,0,.016,.0008,.0241,.0009v-1.9762c-.7634-.0205-1.4954,.3043-1.9925,.8841Z"/>
      <path d="M50.5164,14.2008c-.7048,0-1.2761,.5714-1.2761,1.2762,0,.7048,.5714,1.2761,1.2762,1.2761,.7048,0,1.2761-.5714,1.2761-1.2761,0-.7047-.5712-1.2761-1.2759-1.2761h-.0003Z"/>
      <path d="M14.8487,6.7907h-2.2051c.0069,1.7934-.8395,3.4832-2.28,4.5515l-.8735,.6543,3.385,4.616h2.7829l-3.1145-4.2474c1.4837-1.4746,2.314-3.4826,2.3052-5.5744Z"/>
      <rect x="7.0117" y="6.7907" width="2.209" height="9.8214"/>
    </g>
  </g>
</svg>