<?xml version="1.0" encoding="utf-8"?>
<!-- Generator: Adobe Illustrator 26.4.1, SVG Export Plug-In . SVG Version: 6.00 Build 0)  -->
<svg version="1.1" id="Ebene_1" xmlns="http://www.w3.org/2000/svg" xmlns:xlink="http://www.w3.org/1999/xlink" x="0px" y="0px"
	 viewBox="0 0 96 64" style="enable-background:new 0 0 96 64;" xml:space="preserve">
<style type="text/css">
	.st0{fill-rule:evenodd;clip-rule:evenodd;fill:#FA82A0;}
	.st1{fill-rule:evenodd;clip-rule:evenodd;fill:#FFFFFF;}
	.st2{fill:#FFFFFF;}
</style>
	<g>
	<path class="st0" d="M11.3,0h73.3C90.9,0,96,5.1,96,11.3v41.3C96,58.9,90.9,64,84.7,64H11.3C5.1,64,0,58.9,0,52.7V11.3
		C0,5.1,5.1,0,11.3,0z"/>
		<path class="st1" d="M20.8,45.8c2.6,0,4,1.4,4,3.4c0,1.8-1,2.8-2.9,3.5L21.2,53c-1.6,0.6-2.3,0.9-2.3,2.7V57h-2.3V45.8H20.8z
		 M21,50.8c1.1-0.3,1.5-0.8,1.5-1.6c0-0.8-0.6-1.3-1.7-1.3H19v3.7c0.4-0.3,1-0.5,1.6-0.7C20.5,50.9,21,50.8,21,50.8z M31.4,49.3h2.1
		V57h-2.1v-0.8c-0.6,0.6-1.3,0.9-2.3,0.9c-2.2,0-4-1.8-4-4c0,0,0,0,0,0c0-2.2,1.8-4,4-4c0,0,0,0,0,0c1,0,1.7,0.3,2.3,0.9
		C31.4,50,31.4,49.3,31.4,49.3z M29.4,55.1c1.2,0,2.1-0.9,2.1-2s-0.9-2-2.1-2c-1.2,0-2.1,0.9-2.1,2S28.2,55.1,29.4,55.1z M40.2,49.3
		l-1.7,4.5l-1.8-4.5h-2.4l3,7.3c-0.4,0.8-1,1.2-2,1.2c-0.2,0-0.4,0-0.5,0v2c0.2,0,0.4,0.1,0.7,0.1c2.8,0,3.6-1.8,4.7-4.8l2.3-5.7
		H40.2L40.2,49.3z M51.4,49.1c-1.1,0-1.8,0.4-2.4,1v-0.8h-2.1V57h2.2v-4.1c0-1.2,0.8-1.9,1.8-1.9s1.8,0.7,1.8,1.9V57h2.2v-4.5
		C54.8,50.6,53.6,49.1,51.4,49.1z M60,57.2c-2.3,0-4.2-1.8-4.2-4.1S57.7,49,60,49c2.3,0,4.2,1.8,4.2,4.1S62.3,57.2,60,57.2z
		 M60,55.2c1.1,0,2-0.9,2-2s-0.9-2-2-2s-2,0.9-2,2S58.9,55.2,60,55.2z M75.3,49.3h2.3L75.2,57h-2.5c-0.7-1.3-1.3-2.6-1.8-4
		c-0.4,1.3-1.1,2.8-1.7,4h-2.4l-2.4-7.7h2.3l1.6,5.5c0.8-1.5,1.5-3.8,1.7-5.5h2c0.2,1.7,1,4,1.7,5.4L75.3,49.3L75.3,49.3z M79,57.1
		c-0.8,0-1.5-0.7-1.5-1.5c0-0.8,0.7-1.5,1.5-1.5s1.5,0.7,1.5,1.5C80.4,56.5,79.8,57.1,79,57.1z"/>
		<g>
		<path class="st2" d="M44.6,29.7c0.7,0.7,0.7,1.8,0,2.4l-0.1,0.1c-0.7,0.7-1.8,0.7-2.4,0l-3.8-3.8c-1.1-1.1-1.2-2.4-0.5-3.1
			l0.1-0.1c0.6-0.6,1.5-0.6,2.1-0.1c0.3,0.2,0.7,0.2,1-0.1c0.2-0.3,0.2-0.7-0.1-0.9c-1.2-0.9-2.9-0.8-3.9,0.3l-0.1,0.1
			c-1.2,1.3-1,3.4,0.6,5l3.8,3.8c1.2,1.2,3.2,1.2,4.4-0.1l0.1-0.1c1.2-1.2,1.2-3.2-0.1-4.4c-0.3-0.3-0.7-0.3-1,0
			C44.3,29.1,44.3,29.5,44.6,29.7z M42.3,9.1L43.8,22c0,0.4,0.4,0.6,0.8,0.6c0.4,0,0.6-0.4,0.6-0.8l-1.6-13l0-0.1
			c-0.3-1.1,0.4-2.3,1.3-2.5c1-0.2,2,0.4,2.3,1.5c0,0,0,0,0,0l2.7,11.7c0.1,0.4,0.5,0.6,0.8,0.5c0.4-0.1,0.6-0.5,0.5-0.8L48.5,7.6
			c-0.4-1.8-2.1-2.9-3.9-2.6c0,0,0,0,0,0C42.9,5.4,41.8,7.3,42.3,9.1z"/>
			<path class="st2" d="M56.7,24.3l3.1-15.5c0.4-1.7-0.6-3.3-2.3-3.8c-1.8-0.5-3.7,0.6-4.2,2.4l-3.4,11.8c-0.1,0.4,0.1,0.7,0.5,0.9
			c0.4,0.1,0.7-0.1,0.9-0.5l3.4-11.8C55,6.7,56.1,6,57.2,6.3c0.9,0.3,1.5,1.2,1.3,2.2L55.3,24c-0.1,0.4,0.2,0.7,0.5,0.8
			S56.6,24.7,56.7,24.3z M48.9,39.2c-4.9,0-9-3.6-9-8.7c0-0.4-0.3-0.7-0.7-0.7c-0.4,0-0.7,0.3-0.7,0.7l0,0c0,5.9,4.8,10.1,10.4,10.1
			c0.4,0,0.7-0.3,0.7-0.7C49.6,39.5,49.3,39.2,48.9,39.2C48.9,39.2,48.9,39.2,48.9,39.2z M46.4,27.2c-0.1,0.4-0.3,0.7-0.7,1
			l-0.1,0.1c-0.8,0.5-1.9,0.3-2.4-0.5l-3-4.5c-0.8-1.2-0.7-2.6,0.1-3.1l0.1-0.1c1-0.6,1.9-0.1,2.8,1.2l2.5,3.8
			c0.2,0.3,0.7,0.4,1,0.2c0.3-0.2,0.4-0.6,0.2-0.9l-2.5-3.8c-1.2-1.8-2.8-2.6-4.6-1.5L39.5,19c-1.5,1-1.7,3.2-0.5,5l3,4.5
			c1,1.4,2.9,1.8,4.3,0.8l0.2-0.1c0.6-0.4,1-1,1.2-1.7c0.1-0.4-0.1-0.7-0.5-0.9C46.9,26.6,46.5,26.8,46.4,27.2z"/>
			<path class="st2" d="M51,29.4c-1.4,0.8-2.3,2.3-2.4,4.6c0,0.4,0.3,0.7,0.7,0.7c0.4,0,0.7-0.3,0.7-0.7c0.1-2.1,0.9-3.2,2.2-3.7
			c0.7-0.3,1.5-0.3,2.1-0.2c0.1,0,0.2,0,0.2,0c0.9,0.2,1.2-1.2,0.3-1.4l-5.3-1.2c-2.5-0.7-2.9-1.6-2.4-3.1c0.2-0.7,0.6-1,1.2-1.1
			c0.4-0.1,0.9-0.1,1.3,0c0.1,0,0.2,0,0.3,0.1l8.1,1.9c0.1,0,0.1,0,0.2,0c0.1,0.1,0.3,0.2,0.4,0.3c0.5,0.6,0.8,1.7,0.7,3.5
			c-0.5,6.3-3.5,10.2-10.4,10.1c-0.4,0-0.7,0.3-0.7,0.7c0,0.4,0.3,0.7,0.7,0.7l0,0c7.8,0.1,11.2-4.5,11.8-11.4
			c0.2-2.1-0.2-3.6-1.1-4.5C59,24.2,58.5,24,58.1,24l-8-1.9c-0.1,0-0.2-0.1-0.4-0.1c-0.6-0.1-1.2-0.1-1.8,0
			c-1.1,0.2-1.9,0.9-2.2,2.1c-0.7,2.2,0,4,3.4,4.9C49.1,29,51,29.4,51,29.4z"/>
	</g>
</g>
</svg>
