<?xml version="1.0" encoding="utf-8"?>
<!-- Generator: Adobe Illustrator 26.4.1, SVG Export Plug-In . SVG Version: 6.00 Build 0)  -->
<svg version="1.1" id="Ebene_1" xmlns="http://www.w3.org/2000/svg" xmlns:xlink="http://www.w3.org/1999/xlink" x="0px" y="0px"
	 viewBox="0 0 24 24" style="enable-background:new 0 0 24 24;" xml:space="preserve">
<style type="text/css">
	.st0{fill:#FFB3C7;}
</style>
<g id="Lager_2">
	<g id="Layer_1">
		<path class="st0" d="M3.1,7.3l17.8,0c1.5,0,2.7,1.2,2.7,2.7l0,3.9c0,1.5-1.2,2.7-2.7,2.7H3.1c-1.5,0-2.7-1.2-2.7-2.7l0-3.9
			C0.4,8.5,1.6,7.3,3.1,7.3z"/>
		<path d="M19,11.4c-0.7-0.4-1.5-0.3-2,0.4s-0.3,1.5,0.4,2c0.5,0.3,1.1,0.3,1.6,0V14h0.8v-2.7H19V11.4z M18.2,13.3
			c-0.4,0-0.7-0.4-0.7-0.7c0-0.4,0.4-0.7,0.7-0.7c0.4,0,0.7,0.3,0.7,0.7C19,13,18.6,13.3,18.2,13.3z"/>
		<rect x="6.9" y="10" width="0.9" height="3.9"/>
		<path d="M15.3,11.2c-0.3,0-0.6,0.1-0.8,0.4l0-0.3h-0.8V14h0.8v-1.4c0-0.3,0.2-0.6,0.5-0.6c0,0,0.1,0,0.1,0c0.4,0,0.6,0.2,0.6,0.6
			V14h0.8v-1.7C16.4,11.6,15.9,11.2,15.3,11.2z"/>
		<path d="M10.4,11.4c-0.7-0.4-1.5-0.3-2,0.4c-0.4,0.7-0.3,1.5,0.4,2c0.5,0.3,1.1,0.3,1.6,0V14h0.8v-2.7h-0.8V11.4z M9.6,13.3
			C9.2,13.3,9,13,9,12.6s0.4-0.7,0.7-0.7c0.4,0,0.7,0.3,0.7,0.7C10.4,13,10,13.3,9.6,13.3L9.6,13.3z"/>
		<path d="M12.5,11.6v-0.4h-0.8V14h0.8v-1.3c0-0.4,0.5-0.7,0.8-0.7c0,0,0,0,0,0v-0.8C12.9,11.2,12.7,11.4,12.5,11.6z"/>
		<path d="M20.7,13c-0.3,0-0.5,0.2-0.5,0.5c0,0.3,0.2,0.5,0.5,0.5c0.3,0,0.5-0.2,0.5-0.5C21.2,13.2,20.9,13,20.7,13
			C20.7,13,20.7,13,20.7,13z"/>
		<path d="M6.4,10H5.5c0,0.7-0.3,1.4-0.9,1.8l-0.4,0.3L5.6,14h1.1l-1.2-1.7C6,11.7,6.4,10.9,6.4,10z"/>
		<rect x="3.2" y="10" width="0.9" height="3.9"/>
	</g>
</g>
</svg>
