<?xml version="1.0" encoding="utf-8"?>
<!-- Generator: Adobe Illustrator 26.4.1, SVG Export Plug-In . SVG Version: 6.00 Build 0)  -->
<svg version="1.1" id="Ebene_1" xmlns="http://www.w3.org/2000/svg" xmlns:xlink="http://www.w3.org/1999/xlink" x="0px" y="0px"
	 viewBox="0 0 24 24" style="enable-background:new 0 0 24 24;" xml:space="preserve">
<style type="text/css">
	.st0{fill:#EE7F00;}
	.st1{fill:#383A41;}
</style>
<g id="layer1" transform="translate(85.788367,-282.23124)">
	<path id="path66" class="st0" d="M-77.7,290.6c-0.3,0-0.6,0.1-0.9,0.2c-0.4,0.2-0.8,0.5-1.1,1c-0.2,0.3-0.4,0.6-0.5,1
		c-0.3,0.7-0.2,1.2,0,1.6c0.1,0.2,0.4,0.5,1.1,0.5h0c1.1,0,2-0.7,2.5-2.2c0.1-0.4,0.3-1.1,0-1.6C-76.9,290.8-77.2,290.6-77.7,290.6
		L-77.7,290.6z M-71,290.6c-0.3,0-0.6,0.1-0.9,0.2c-0.4,0.2-0.8,0.5-1.1,1c-0.2,0.3-0.4,0.6-0.5,1c-0.3,0.7-0.2,1.2,0,1.6
		c0.1,0.2,0.4,0.5,1.1,0.5h0c1.1,0,2-0.7,2.5-2.2c0.1-0.4,0.3-1.1,0-1.6C-70.1,290.8-70.5,290.6-71,290.6z M-81.3,290.7
		c-0.4,0-0.7,0-1,0.2c-0.3,0.2-0.6,0.5-0.8,1.1c0,0.1-0.1,0.3-0.1,0.4c0,0.1,0,0.2,0.1,0.3c0,0.1,0.1,0.2,0.2,0.3
		c0.1,0.1,0.2,0.1,0.3,0.2c0,0,0.1,0,0.2,0c0.1,0,0.2,0.1,0.2,0.1c0,0,0.1,0,0.1,0c0,0,0.1,0,0.1,0.1c0,0,0,0.1,0,0.1
		c0,0,0,0.1,0,0.1c0,0.1-0.1,0.1-0.2,0.2c-0.1,0-0.2,0-0.4,0H-85l-0.4,1h2.6c0.2,0,0.7,0,1.1-0.2c0.4-0.2,0.8-0.5,1-1.3
		c0.1-0.3,0-0.5-0.1-0.7c-0.1-0.2-0.3-0.3-0.6-0.4c0,0-0.1,0-0.1,0c-0.1,0-0.2,0-0.2-0.1c-0.1,0-0.1-0.1-0.2-0.1c0-0.1,0-0.1,0-0.2
		c0-0.1,0.1-0.1,0.1-0.2c0.1,0,0.2-0.1,0.3-0.1h1.5c0,0,0,0,0,0c0.3-0.4,0.6-0.7,1-0.9H-81.3z M-74.6,290.7c-0.7,0-1.2,0.3-1.4,1
		l-1.1,3.1h1.2l0.6-1.6l1.1,0l0.3-0.9l-1.1,0l0.2-0.5c0-0.1,0.1-0.2,0.3-0.2c0.1,0,0.9,0,1.3,0c0,0,0,0,0,0c0.3-0.4,0.7-0.7,1-0.9
		H-74.6L-74.6,290.7z M-68.8,290.7l-1.5,4.1h1.3l0.5-1.4c0,0.1,0.3,1.4,0.3,1.4h1.3c0,0-0.2-1-0.4-1.4c0-0.1-0.1-0.2-0.2-0.3
		c0.4-0.1,0.9-0.4,1.1-1c0.1-0.4,0.1-0.7,0-0.9c-0.2-0.3-0.6-0.4-1.2-0.4H-68.8L-68.8,290.7z M-66.3,290.7c0.1,0.1,0.1,0.1,0.2,0.2
		c0.1,0.2,0.2,0.5,0.2,0.8h0.8l-1.1,3.1h1.1l1.1-3.1h1.5l0.4-1H-66.3z M-68,291.5h0.2c0.4,0,0.5,0.1,0.4,0.5
		c-0.1,0.3-0.3,0.5-0.8,0.5h0l-0.2,0L-68,291.5L-68,291.5z M-78,291.6L-78,291.6c0.4,0,0.5,0.2,0.1,1.2h0c-0.3,1-0.6,1.2-1,1.2h0
		c-0.4,0-0.5-0.2-0.2-1.2C-78.8,292-78.4,291.6-78,291.6L-78,291.6z M-71.3,291.6L-71.3,291.6c0.4,0,0.5,0.2,0.1,1.2
		c-0.3,1-0.6,1.2-1,1.2h0c-0.4,0-0.5-0.2-0.2-1.2C-72,292-71.7,291.6-71.3,291.6L-71.3,291.6z"/>
	<path id="path98" class="st1" d="M-84.2,295.2c-0.1,0-0.1,0-0.2,0c0,0-0.1,0.1-0.1,0.2c0,0.1,0,0.1,0,0.1c0,0,0.1,0,0.1,0
		c0.1,0,0.1,0,0.2,0c0,0,0.1-0.1,0.1-0.2c0-0.1,0-0.1,0-0.1C-84,295.2-84.1,295.2-84.2,295.2z M-83.5,295.2c-0.1,0-0.1,0-0.2,0
		c0,0-0.1,0.1-0.1,0.2c0,0.1,0,0.1,0,0.1c0,0,0.1,0,0.1,0c0.1,0,0.1,0,0.2,0c0,0,0.1-0.1,0.1-0.2c0-0.1,0-0.1,0-0.1
		C-83.3,295.2-83.4,295.2-83.5,295.2z M-70.7,295.7c-0.1,0-0.2,0-0.3,0c-0.1,0-0.2,0.1-0.3,0.1c-0.1,0-0.1,0.1-0.2,0.2
		c-0.1,0.1-0.1,0.2-0.1,0.3c0,0.1,0,0.2,0,0.2c0,0.1,0,0.1,0,0.2c0,0,0.1,0.1,0.1,0.1c0,0,0.1,0.1,0.1,0.1c0,0,0.1,0,0.1,0.1
		c0,0,0.1,0,0.1,0.1c0,0,0.1,0.1,0.1,0.1c0,0,0,0.1,0,0.1c0,0,0,0.1-0.1,0.1c0,0-0.1,0.1-0.1,0.1c0,0-0.1,0-0.1,0.1c0,0-0.1,0-0.1,0
		c-0.1,0-0.1,0-0.2,0c-0.1,0-0.1,0-0.1-0.1c0,0-0.1,0-0.1-0.1c0,0,0,0-0.1,0c0,0,0,0,0,0c0,0,0,0,0,0c0,0,0,0,0,0.1c0,0,0,0,0,0.1
		c0,0,0,0.1,0,0.1c0,0,0,0,0,0.1c0,0,0,0,0,0c0,0,0.1,0,0.1,0.1s0.1,0,0.1,0c0.1,0,0.1,0,0.2,0c0.1,0,0.2,0,0.3,0
		c0.1,0,0.2-0.1,0.3-0.1c0.1-0.1,0.2-0.1,0.2-0.2c0.1-0.1,0.1-0.2,0.2-0.3c0-0.1,0-0.2,0-0.2c0-0.1,0-0.1,0-0.2c0,0-0.1-0.1-0.1-0.1
		c0,0-0.1-0.1-0.1-0.1c0,0-0.1,0-0.1-0.1c0,0-0.1,0-0.1-0.1c0,0-0.1-0.1-0.1-0.1c0,0,0-0.1,0-0.1c0,0,0-0.1,0-0.1c0,0,0-0.1,0.1-0.1
		s0.1,0,0.1,0c0,0,0.1,0,0.1,0c0.1,0,0.1,0,0.2,0c0,0,0.1,0,0.1,0c0,0,0.1,0,0.1,0c0,0,0,0,0,0c0,0,0,0,0,0s0,0,0,0c0,0,0,0,0-0.1
		c0,0,0,0,0-0.1c0,0,0-0.1,0-0.1c0,0,0,0,0,0c0,0,0,0,0,0c0,0,0,0,0,0c0,0,0,0,0,0c0,0-0.1,0-0.1,0c0,0-0.1,0-0.1,0
		C-70.6,295.7-70.7,295.7-70.7,295.7L-70.7,295.7z M-64.2,295.7c-0.2,0-0.3,0-0.5,0.1c-0.1,0-0.3,0.1-0.4,0.2
		c-0.1,0.1-0.2,0.2-0.3,0.3c-0.1,0.1-0.2,0.3-0.2,0.4c-0.1,0.2-0.1,0.3-0.1,0.4c0,0.1,0,0.2,0.1,0.3c0.1,0.1,0.1,0.2,0.3,0.2
		c0.1,0,0.2,0.1,0.4,0.1c0.1,0,0.1,0,0.2,0c0.1,0,0.1,0,0.2,0c0.1,0,0.1,0,0.2,0c0.1,0,0.1,0,0.1,0c0,0,0.1,0,0.1-0.1
		c0,0,0-0.1,0-0.1l0.3-0.8c0,0,0,0,0-0.1c0,0,0,0,0,0c0,0,0,0,0,0c0,0,0,0,0,0h-0.7c0,0,0,0,0,0c0,0,0,0,0,0c0,0,0,0,0,0
		c0,0,0,0,0,0.1c0,0.1,0,0.1,0,0.1c0,0,0,0,0,0h0.4l-0.2,0.5c0,0-0.1,0-0.1,0c0,0-0.1,0-0.1,0c-0.1,0-0.2,0-0.2,0
		c-0.1,0-0.1-0.1-0.2-0.1c0-0.1,0-0.1,0-0.2c0-0.1,0-0.2,0.1-0.3c0-0.1,0.1-0.2,0.2-0.3c0.1-0.1,0.1-0.2,0.2-0.2
		c0.1-0.1,0.2-0.1,0.3-0.1c0.1,0,0.2-0.1,0.3-0.1c0.1,0,0.2,0,0.2,0c0.1,0,0.1,0,0.2,0.1c0,0,0.1,0,0.1,0.1c0,0,0,0,0.1,0
		c0,0,0,0,0,0c0,0,0,0,0,0c0,0,0,0,0-0.1c0,0,0,0,0-0.1c0-0.1,0-0.1,0-0.1c0,0,0,0,0-0.1c0,0,0,0-0.1-0.1c0,0-0.1,0-0.1-0.1
		c0,0-0.1,0-0.2,0C-64.1,295.7-64.1,295.7-64.2,295.7z M-77,295.8c-0.1,0-0.1,0-0.1,0c0,0-0.1,0-0.1,0c0,0,0,0,0,0c0,0,0,0.1,0,0.1
		l-0.2,1.8c0,0,0,0,0,0.1c0,0,0,0,0,0c0,0,0,0,0.1,0c0,0,0.1,0,0.1,0c0.1,0,0.1,0,0.1,0s0.1,0,0.1,0c0,0,0,0,0.1,0c0,0,0,0,0-0.1
		l0.8-1.3h0l-0.1,1.3c0,0,0,0,0,0.1c0,0,0,0,0,0c0,0,0,0,0.1,0c0,0,0.1,0,0.1,0c0.1,0,0.1,0,0.1,0s0.1,0,0.1,0c0,0,0,0,0.1,0
		c0,0,0,0,0-0.1l1.1-1.8c0,0,0-0.1,0-0.1c0,0,0,0,0-0.1c0,0,0,0,0,0c0,0-0.1,0-0.1,0c0,0-0.1,0-0.1,0c0,0-0.1,0-0.1,0c0,0,0,0,0,0
		c0,0,0,0,0,0l-0.9,1.5h0l0.2-1.5c0,0,0,0,0-0.1c0,0,0,0,0,0c0,0,0,0-0.1,0c0,0-0.1,0-0.1,0c0,0-0.1,0-0.1,0c0,0-0.1,0-0.1,0
		c0,0,0,0,0,0c0,0,0,0,0,0l-0.9,1.5h0l0.2-1.5c0,0,0,0,0,0c0,0,0,0,0,0c0,0,0,0-0.1,0C-76.9,295.8-77,295.8-77,295.8L-77,295.8z
		 M-72.1,295.8c0,0-0.1,0-0.1,0c0,0,0,0-0.1,0c0,0,0,0,0,0c0,0,0,0,0,0l-0.7,1.9c0,0,0,0,0,0c0,0,0,0,0,0c0,0,0,0,0.1,0
		c0,0,0.1,0,0.1,0c0,0,0.1,0,0.1,0c0,0,0,0,0.1,0c0,0,0,0,0,0c0,0,0,0,0,0l0.7-1.9c0,0,0,0,0,0s0,0,0,0
		C-72,295.8-72,295.8-72.1,295.8C-72.1,295.8-72.1,295.8-72.1,295.8L-72.1,295.8z M-84.6,295.8c0,0-0.1,0-0.1,0c0,0,0,0-0.1,0
		c0,0,0,0,0,0c0,0,0,0,0,0l-0.4,1.2c0,0.1-0.1,0.2-0.1,0.3c0,0.1,0,0.2,0.1,0.2c0,0.1,0.1,0.1,0.2,0.1c0.1,0,0.2,0,0.3,0
		c0.1,0,0.3,0,0.4-0.1c0.1,0,0.2-0.1,0.3-0.2c0.1-0.1,0.2-0.2,0.3-0.2c0.1-0.1,0.1-0.2,0.2-0.3l0.4-1.2c0,0,0,0,0,0c0,0,0,0,0,0
		c0,0,0,0-0.1,0c0,0-0.1,0-0.1,0c0,0-0.1,0-0.1,0c0,0-0.1,0-0.1,0c0,0,0,0,0,0c0,0,0,0,0,0l-0.4,1.2c0,0.1-0.1,0.1-0.1,0.2
		c0,0.1-0.1,0.1-0.1,0.1c0,0-0.1,0.1-0.2,0.1c-0.1,0-0.1,0-0.2,0c-0.1,0-0.1,0-0.2,0c0,0-0.1,0-0.1-0.1c0,0,0-0.1,0-0.1
		c0-0.1,0-0.1,0-0.2l0.4-1.2c0,0,0,0,0,0c0,0,0,0,0,0C-84.5,295.8-84.5,295.8-84.6,295.8C-84.6,295.8-84.6,295.8-84.6,295.8
		L-84.6,295.8z M-69.5,295.8c0,0-0.1,0-0.1,0c0,0,0,0-0.1,0c0,0,0,0,0,0c0,0,0,0,0,0l-0.4,1.2c0,0.1-0.1,0.2-0.1,0.3
		c0,0.1,0,0.2,0.1,0.2c0,0.1,0.1,0.1,0.2,0.1c0.1,0,0.2,0,0.3,0c0.1,0,0.3,0,0.4-0.1c0.1,0,0.2-0.1,0.3-0.2c0.1-0.1,0.2-0.2,0.3-0.2
		c0.1-0.1,0.1-0.2,0.2-0.3l0.4-1.2c0,0,0,0,0,0c0,0,0,0,0,0c0,0,0,0-0.1,0c0,0-0.1,0-0.1,0c0,0-0.1,0-0.1,0c0,0-0.1,0-0.1,0
		c0,0,0,0,0,0c0,0,0,0,0,0l-0.4,1.2c0,0.1-0.1,0.1-0.1,0.2c0,0.1-0.1,0.1-0.1,0.1c0,0-0.1,0.1-0.2,0.1c-0.1,0-0.1,0-0.2,0
		c-0.1,0-0.1,0-0.2,0c0,0-0.1,0-0.1-0.1c0,0,0-0.1,0-0.1c0-0.1,0-0.1,0-0.2l0.4-1.2c0,0,0,0,0,0c0,0,0,0,0,0
		C-69.3,295.8-69.3,295.8-69.5,295.8C-69.4,295.8-69.4,295.8-69.5,295.8L-69.5,295.8z M-66,295.8C-66,295.8-66,295.8-66,295.8
		c-0.1,0-0.1,0-0.2,0c0,0,0,0,0,0c0,0,0,0,0,0l-0.3,0.9c0,0.1-0.1,0.1-0.1,0.2c0,0.1-0.1,0.2-0.1,0.2h0c0,0,0-0.1,0-0.1
		c0,0,0-0.1,0-0.1c0,0,0-0.1,0-0.1c0,0,0-0.1,0-0.1l-0.1-0.7c0,0,0-0.1,0-0.1c0,0,0,0,0-0.1c0,0,0,0-0.1,0c0,0-0.1,0-0.1,0h-0.2
		c0,0-0.1,0-0.1,0c0,0-0.1,0.1-0.1,0.1l-0.7,1.8c0,0,0,0,0,0c0,0,0,0,0,0c0,0,0,0,0.1,0c0,0,0.1,0,0.1,0c0,0,0.1,0,0.1,0
		c0,0,0,0,0.1,0c0,0,0,0,0,0c0,0,0,0,0,0l0.4-1.1c0-0.1,0.1-0.2,0.1-0.2c0-0.1,0-0.1,0.1-0.2h0c0,0.1,0,0.1,0,0.2c0,0.1,0,0.1,0,0.2
		l0.2,0.9c0,0.1,0,0.1,0,0.1c0,0,0,0.1,0,0.1c0,0,0,0,0.1,0c0,0,0.1,0,0.1,0h0.2c0,0,0,0,0.1,0c0,0,0,0,0.1,0c0,0,0,0,0.1,0
		c0,0,0,0,0-0.1l0.7-1.8c0,0,0,0,0,0c0,0,0,0,0,0S-65.8,295.8-66,295.8C-65.9,295.8-65.9,295.8-66,295.8L-66,295.8z M-80.6,295.8
		C-80.6,295.8-80.6,295.8-80.6,295.8c-0.1,0.1-0.2,0.1-0.2,0.1l-0.6,1.8c0,0,0,0.1,0,0.1c0,0,0,0,0.1,0h1c0,0,0,0,0,0c0,0,0,0,0,0
		c0,0,0,0,0,0c0,0,0,0,0-0.1c0,0,0-0.1,0-0.1c0,0,0,0,0,0c0,0,0,0,0,0c0,0,0,0,0,0h-0.7l0.2-0.6h0.6c0,0,0,0,0,0c0,0,0,0,0,0
		s0,0,0,0c0,0,0,0,0-0.1c0,0,0-0.1,0-0.1c0,0,0,0,0,0c0,0,0,0,0,0s0,0,0,0h-0.6l0.2-0.5h0.7c0,0,0,0,0,0c0,0,0,0,0,0c0,0,0,0,0,0
		c0,0,0,0,0-0.1c0,0,0-0.1,0-0.1c0,0,0,0,0,0c0,0,0,0,0,0c0,0,0,0,0,0H-80.6L-80.6,295.8z M-78.9,295.8
		C-78.9,295.8-78.9,295.8-78.9,295.8c-0.1,0.1-0.2,0.1-0.2,0.1l-0.7,1.8c0,0,0,0,0,0c0,0,0,0,0,0c0,0,0,0,0.1,0c0,0,0.1,0,0.1,0
		c0,0,0.1,0,0.1,0c0,0,0,0,0.1,0c0,0,0,0,0,0c0,0,0,0,0,0l0.3-0.8h0.1c0,0,0.1,0,0.1,0c0,0,0.1,0,0.1,0.1c0,0,0,0.1,0,0.1
		c0,0,0,0.1,0,0.1l0,0.5c0,0,0,0,0,0c0,0,0,0,0,0c0,0,0,0,0.1,0c0,0,0.1,0,0.1,0c0.1,0,0.1,0,0.1,0c0,0,0.1,0,0.1,0c0,0,0,0,0,0
		c0,0,0,0,0,0c0,0,0,0,0,0s0,0,0-0.1l0-0.4c0,0,0-0.1,0-0.1c0,0,0-0.1,0-0.1s0-0.1,0-0.1c0,0,0,0-0.1-0.1c0.1,0,0.1,0,0.2-0.1
		c0.1,0,0.1-0.1,0.2-0.1c0,0,0.1-0.1,0.1-0.1c0-0.1,0.1-0.1,0.1-0.2c0-0.1,0-0.2,0-0.2c0-0.1,0-0.1,0-0.2c0,0-0.1-0.1-0.1-0.1
		c-0.1,0-0.1,0-0.2-0.1c0,0-0.1,0-0.1,0c0,0-0.1,0-0.1,0H-78.9L-78.9,295.8z M-73.9,295.8C-73.9,295.8-74,295.8-73.9,295.8
		c-0.1,0.1-0.2,0.1-0.2,0.1l-0.6,1.8c0,0,0,0.1,0,0.1c0,0,0,0,0.1,0h1c0,0,0,0,0,0c0,0,0,0,0,0c0,0,0,0,0,0c0,0,0,0,0-0.1h0
		c0,0,0-0.1,0-0.1c0,0,0,0,0,0c0,0,0,0,0,0c0,0,0,0,0,0h-0.7l0.2-0.6h0.6c0,0,0,0,0,0c0,0,0,0,0,0c0,0,0,0,0,0c0,0,0,0,0-0.1
		c0,0,0-0.1,0-0.1c0,0,0,0,0,0c0,0,0,0,0,0c0,0,0,0,0,0h-0.6l0.2-0.5h0.7c0,0,0,0,0,0c0,0,0,0,0,0c0,0,0,0,0,0c0,0,0,0,0-0.1
		c0,0,0-0.1,0-0.1c0,0,0,0,0,0c0,0,0,0,0,0c0,0,0,0,0,0H-73.9L-73.9,295.8z M-82.5,295.8C-82.5,295.8-82.6,295.8-82.5,295.8
		c-0.1,0.1-0.2,0.1-0.2,0.1l-0.6,1.8c0,0,0,0.1,0,0.1c0,0,0,0,0.1,0h0.5c0.1,0,0.2,0,0.2,0c0.1,0,0.1,0,0.2,0s0.1,0,0.2-0.1
		c0.1,0,0.1-0.1,0.2-0.1c0.1,0,0.1-0.1,0.1-0.2c0-0.1,0.1-0.1,0.1-0.2c0-0.1,0-0.1,0-0.2c0-0.1,0-0.1,0-0.1c0,0-0.1-0.1-0.1-0.1
		c0,0-0.1,0-0.1-0.1c0.1,0,0.1,0,0.1-0.1c0,0,0.1-0.1,0.1-0.1c0,0,0.1-0.1,0.1-0.1c0,0,0.1-0.1,0.1-0.1c0-0.1,0-0.2,0-0.2
		c0-0.1,0-0.1-0.1-0.2c0,0-0.1-0.1-0.2-0.1c-0.1,0-0.2,0-0.3,0C-82,295.8-82.5,295.8-82.5,295.8z M-82.3,296.1h0.2
		c0.1,0,0.1,0,0.1,0c0,0,0.1,0,0.1,0c0,0,0,0,0,0.1c0,0,0,0.1,0,0.1c0,0,0,0.1-0.1,0.1c0,0-0.1,0.1-0.1,0.1c0,0-0.1,0-0.1,0.1
		c0,0-0.1,0-0.2,0h-0.2C-82.5,296.6-82.3,296.1-82.3,296.1z M-78.7,296.1h0.2c0,0,0.1,0,0.1,0c0,0,0,0,0.1,0c0.1,0,0.1,0.1,0.1,0.1
		c0,0,0,0.1,0,0.2c0,0,0,0.1-0.1,0.1c0,0-0.1,0.1-0.1,0.1c0,0-0.1,0-0.1,0.1c0,0-0.1,0-0.2,0h-0.2L-78.7,296.1z M-82.6,296.9h0.2
		c0.1,0,0.1,0,0.2,0c0,0,0.1,0,0.1,0.1c0,0,0,0.1,0,0.1c0,0,0,0.1,0,0.1c0,0,0,0.1-0.1,0.1c0,0-0.1,0.1-0.1,0.1c0,0-0.1,0-0.1,0.1
		c0,0-0.1,0-0.2,0h-0.3C-82.8,297.5-82.6,296.9-82.6,296.9z"/>
</g>
</svg>
